# xmcd
#
# Track frame offsets:
#	150
#	17065
#	39500
#	55620
#	68818
#	82272
#	96924
#	111701
#	124839
#	141523
#	154062
#	169031
#	191306
#	206423
#
# Disc length: 2966 seconds
#
# Revision: 1
# Processed by: cddbd v1.5.2PL0 Copyright (c) Steve Scherf et al.
# Submitted via: audiograbber 1.83.01
#
DISCID=c60b940e
DTITLE=Various Artist - Die Grössten Schlagerstars CD1 2505
DYEAR=1900
DGENRE=
TTITLE0=Brunner and Brunner - Schenk' Mir Diese Eine Nacht
TTITLE1=Andreas Fulterer - Ich Bin Frei
TTITLE2=Astrid Breck - Liebe Ist
TTITLE3=Calimeros - Arrivederci, Ciao Amor
TTITLE4=Maxi Arland - Sag' Ja Zu Mir
TTITLE5=Daniela Alfinito - Komm Und Tanz Mit Mir
TTITLE6=Tops - Du Bist Mein Kleines Paradies
TTITLE7=Christian Anders - Verliebt In Den Lehrer
TTITLE8=Bernd Clüver and Marion Maerz - Schau Mal Herein
TTITLE9=Graziano - Du Bist Mein Erster Gedanke
TTITLE10=Bata Illic - Schwarze Madonna
TTITLE11=Bernhard Brink - Dich Vergess Ich Nie
TTITLE12=Paldauer - Das Feuer Von Rhodos
TTITLE13=Peter Orloff - War Das Schon Alles?
EXTD=
EXTT0=
EXTT1=
EXTT2=
EXTT3=
EXTT4=
EXTT5=
EXTT6=
EXTT7=
EXTT8=
EXTT9=
EXTT10=
EXTT11=
EXTT12=
EXTT13=
PLAYORDER=
